<svg aria-hidden="true" style="position: absolute; width: 0; height: 0; overflow: hidden;" version="1.1" xmlns="http://www.w3.org/2000/svg" xmlns:xlink="http://www.w3.org/1999/xlink">
<defs>
<symbol id="down-arrow" viewBox="0 0 32 32">
<path d="M16.075 22.895l-12.036-12.036 1.505-1.505 10.531 10.531 10.53-10.531 1.505 1.505-12.035 12.036z">
</path>
</symbol>
<symbol id="up-arrow" viewBox="0 0 32 32">
<path d="M16.080 9.389l-12.036 12.036 1.505 1.505 10.531-10.531 10.531 10.531 1.505-1.505-12.035-12.036z"></path>
</symbol>
<symbol id="icon-basket" viewBox="0 0 36 32">
<path d="M0.717 0.118c-0.031 0.031-0.112 0.096-0.183 0.146-0.101 0.073-0.157 0.149-0.287 0.397-0.16 0.309-0.247 0.529-0.247 0.624 0 0.082 0.112 0.351 0.186 0.45 0.048 0.065 0.205 0.16 0.54 0.329l0.47 0.236 1.673 1.802c0.92 0.99 1.682 1.828 1.693 1.864s0.56 3.107 1.218 6.827c0.658 3.72 1.234 6.971 1.282 7.224 0.045 0.253 0.082 0.498 0.082 0.54 0 0.076-0.008 0.082-0.115 0.082-0.065 0-0.25 0.039-0.413 0.084-0.939 0.273-1.597 0.633-2.095 1.15-0.284 0.295-0.382 0.436-0.54 0.77-0.394 0.835-0.38 1.814 0.045 3.012 0.129 0.363 0.453 1.040 0.686 1.44 0.084 0.143 0.155 0.278 0.155 0.301 0 0.020-0.082 0.104-0.183 0.186-0.36 0.287-0.703 0.821-0.815 1.268-0.214 0.838 0.008 1.718 0.585 2.325 0.408 0.427 0.782 0.63 1.423 0.768 0.29 0.062 0.489 0.070 0.647 0.031 0.056-0.017 0.197-0.048 0.312-0.073 1.44-0.321 2.281-1.912 1.743-3.298-0.045-0.115-0.076-0.222-0.068-0.236 0.023-0.034 14.288-0.028 14.31 0.006 0.008 0.014-0.003 0.065-0.025 0.11-0.096 0.186-0.188 0.582-0.205 0.875-0.037 0.728 0.217 1.386 0.737 1.898 0.439 0.433 0.998 0.68 1.668 0.737 0.262 0.023 0.849-0.118 1.173-0.278 0.526-0.264 0.979-0.756 1.192-1.294 0.141-0.354 0.18-0.599 0.166-1.032-0.011-0.349-0.023-0.411-0.115-0.686-0.059-0.169-0.098-0.318-0.087-0.332 0.008-0.014 0.377-0.025 0.844-0.025h0.827v-0.703h-2.264l-0.169-0.127c-0.231-0.172-0.43-0.276-0.748-0.385-0.256-0.090-0.278-0.093-0.728-0.093-0.399 0-0.495 0.008-0.68 0.062-0.295 0.087-0.543 0.208-0.796 0.391l-0.214 0.152h-15.463l-0.174-0.129c-0.231-0.169-0.557-0.332-0.815-0.408-0.278-0.079-0.883-0.104-1.161-0.045-0.107 0.023-0.211 0.037-0.228 0.028-0.042-0.014-0.337-0.52-0.526-0.894-0.77-1.544-0.83-2.764-0.177-3.633 0.354-0.472 1.004-0.869 1.828-1.116l0.329-0.101h7.424l-0.008-0.343-0.008-0.346-6.521-0.028-0.020-0.093c-0.014-0.073-0.008-0.098 0.034-0.118 0.031-0.017 0.579-0.028 1.395-0.028 0.74 0 2.908-0.014 4.817-0.028 4.82-0.039 10.013-0.076 15.522-0.115 3.959-0.025 4.688-0.037 4.713-0.070 0.017-0.023 0.042-0.132 0.051-0.245 0.011-0.11 0.045-0.411 0.073-0.666 0.031-0.256 0.371-3.242 0.759-6.636 0.385-3.394 0.714-6.22 0.728-6.279 0.023-0.093 0.020-0.107-0.037-0.118-0.031-0.008-0.439-0.053-0.903-0.098-0.807-0.082-1.757-0.18-3.543-0.366-0.447-0.048-1.788-0.186-2.981-0.309-2.131-0.219-4.494-0.461-8.731-0.9-1.184-0.121-3.144-0.323-4.359-0.45s-2.809-0.29-3.543-0.366c-0.734-0.076-2.393-0.247-3.684-0.38s-2.376-0.253-2.41-0.267c-0.031-0.014-0.101-0.096-0.155-0.183l-0.093-0.157-2.688-1.524-0.059-0.138c-0.031-0.073-0.104-0.174-0.16-0.225s-0.399-0.233-0.762-0.411c-0.562-0.276-0.689-0.326-0.846-0.343-0.104-0.011-0.2-0.025-0.211-0.034-0.014-0.006-0.051 0.011-0.082 0.039zM3.821 2.598c0.588 0.335 1.074 0.619 1.083 0.633 0.011 0.020 0.2 1.774 0.222 2.081 0.003 0.053-0.008 0.101-0.025 0.107-0.031 0.011-2.73-2.863-2.759-2.938-0.008-0.017 0.031-0.084 0.087-0.146 0.056-0.065 0.132-0.172 0.166-0.242 0.042-0.090 0.073-0.124 0.107-0.115 0.028 0.008 0.529 0.287 1.119 0.621zM7.050 3.571c0.444 0.045 0.956 0.098 1.133 0.115 0.177 0.020 0.337 0.048 0.357 0.065 0.017 0.017 0.045 0.225 0.062 0.509 0.048 0.731 0.141 2.072 0.186 2.685 0.020 0.301 0.031 0.557 0.025 0.568-0.017 0.028-0.239 0.028-0.284 0-0.039-0.025-2.511-3.959-2.511-3.999 0-0.042 0.155-0.034 1.032 0.056zM10.55 3.934c0.709 0.073 1.293 0.141 1.305 0.152 0.020 0.020 0.205 3.172 0.208 3.512 0 0.135-0.011 0.191-0.034 0.191-0.101 0-2.744-0.2-2.798-0.211-0.037-0.008-0.070-0.042-0.076-0.079-0.031-0.143-0.25-3.639-0.233-3.684s0.042-0.048 0.18-0.034c0.090 0.011 0.742 0.079 1.448 0.152zM5.421 3.928c0.143 0.205 2.151 3.428 2.165 3.473 0.011 0.042-0.006 0.051-0.11 0.048-0.312-0.003-1.769-0.127-1.794-0.152-0.014-0.017-0.098-0.731-0.183-1.589-0.087-0.858-0.166-1.628-0.174-1.71-0.020-0.166 0.011-0.188 0.096-0.070zM13.863 4.274c0.782 0.082 1.431 0.157 1.443 0.169 0.028 0.025 0.2 3.504 0.174 3.566-0.011 0.034-0.051 0.039-0.219 0.023-0.11-0.008-0.557-0.042-0.99-0.073-1.634-0.121-1.822-0.138-1.842-0.16-0.028-0.028-0.231-3.633-0.208-3.67 0.011-0.017 0.065-0.022 0.121-0.014s0.74 0.082 1.521 0.16zM16.45 4.541c0.38 0.039 1.049 0.11 1.488 0.155 0.54 0.056 0.807 0.096 0.824 0.118 0.011 0.020 0.023 0.804 0.023 1.741 0 1.876 0.014 1.752-0.174 1.724-0.051-0.006-0.534-0.042-1.077-0.082-1.586-0.112-1.648-0.118-1.679-0.149-0.028-0.028-0.205-3.476-0.18-3.54 0.020-0.048-0.031-0.048 0.776 0.034zM20.148 4.924c0.464 0.048 1.097 0.115 1.406 0.146l0.562 0.062-0.011 1.673c-0.003 0.92-0.020 1.684-0.034 1.698-0.014 0.017-0.281 0.008-0.692-0.020-1.361-0.098-2.188-0.163-2.219-0.174-0.023-0.006-0.037-0.492-0.045-1.707-0.008-0.934-0.008-1.712 0-1.732 0.017-0.048 0.084-0.045 1.032 0.053zM23.958 5.315c0.765 0.079 1.437 0.149 1.49 0.163 0.096 0.020 0.096 0.022 0.090 0.146-0.003 0.070-0.025 0.695-0.048 1.392-0.051 1.527-0.065 1.729-0.112 1.746-0.034 0.014-2.759-0.177-2.871-0.2-0.034-0.008-0.067-0.028-0.073-0.048-0.020-0.056 0.025-3.279 0.048-3.312 0.008-0.014 0.034-0.028 0.051-0.028 0.020 0 0.661 0.062 1.426 0.141zM27.473 5.68c0.883 0.093 1.375 0.152 1.395 0.177 0.025 0.025 0.028 0.121 0.011 0.371-0.011 0.186-0.051 0.875-0.087 1.53-0.037 0.661-0.079 1.206-0.096 1.229-0.023 0.031-0.27 0.020-1.457-0.070-0.841-0.062-1.44-0.118-1.459-0.138-0.045-0.045 0.073-3.211 0.124-3.242 0.017-0.011 0.070-0.014 0.118-0.008 0.048 0.008 0.7 0.076 1.451 0.152zM30.926 6.037c0.714 0.073 1.316 0.141 1.333 0.152 0.042 0.025 0.042 0.022-0.076 1.375-0.146 1.645-0.149 1.668-0.18 1.684-0.037 0.025-2.905-0.188-2.933-0.217-0.014-0.014 0.003-0.464 0.034-1.007 0.031-0.54 0.070-1.229 0.084-1.53 0.017-0.301 0.037-0.565 0.045-0.588 0.014-0.045-0.084-0.053 1.693 0.129zM33.462 6.299c1.527 0.155 2.086 0.219 2.109 0.242 0.031 0.031-0.292 2.902-0.332 2.941-0.023 0.023-2.652-0.152-2.809-0.188-0.076-0.017-0.076-0.008-0.023-0.576 0.020-0.239 0.079-0.886 0.127-1.434 0.051-0.548 0.104-1.015 0.121-1.035 0.020-0.025 0.065-0.031 0.129-0.022 0.056 0.008 0.36 0.042 0.678 0.073zM6.819 7.733c0.45 0.031 0.869 0.065 0.934 0.073l0.115 0.014 0.551 0.877 0.548 0.877 0.068 0.97c0.051 0.717 0.062 0.979 0.037 1.001-0.037 0.039-2.759-0.104-2.801-0.146-0.045-0.045-0.416-2.216-0.475-2.781-0.090-0.863-0.096-0.908-0.073-0.942 0.014-0.020 0.067-0.028 0.152-0.017 0.070 0.008 0.498 0.042 0.945 0.073zM10.778 8.025c0.751 0.056 1.274 0.107 1.293 0.127 0.039 0.039 0.236 3.537 0.2 3.574-0.034 0.034-1.099-0.028-1.147-0.068-0.020-0.017-0.453-0.695-0.962-1.507l-0.925-1.476-0.020-0.211c-0.008-0.115-0.020-0.284-0.020-0.374l-0.003-0.16h0.163c0.087 0 0.728 0.045 1.42 0.096zM14.015 8.264c0.801 0.062 1.468 0.121 1.479 0.135 0.028 0.025 0.2 3.467 0.174 3.506-0.014 0.025-0.042 0.025-1.847-0.070-0.745-0.039-1.136-0.070-1.159-0.093-0.025-0.023-0.065-0.54-0.135-1.786-0.053-0.964-0.090-1.763-0.082-1.777 0.020-0.034-0.090-0.039 1.569 0.084zM17.294 8.506c0.751 0.056 1.392 0.107 1.428 0.115l0.062 0.011v1.361c0 0.745 0.008 1.507 0.017 1.693 0.008 0.202 0.003 0.351-0.014 0.374-0.023 0.037-0.186 0.034-1.218-0.020-1.552-0.082-1.538-0.082-1.555-0.157-0.023-0.118-0.163-3.386-0.146-3.431 0.011-0.025 0.028-0.045 0.039-0.045s0.636 0.045 1.386 0.098zM20.696 8.762c0.734 0.053 1.347 0.11 1.361 0.124 0.051 0.051 0 3.366-0.051 3.383-0.028 0.008-0.467-0.014-2.342-0.118-0.267-0.014-0.498-0.034-0.515-0.045-0.020-0.011-0.028-0.574-0.028-1.732v-1.712h0.118c0.065 0 0.72 0.045 1.457 0.101zM23.522 8.97c1.586 0.112 1.85 0.138 1.876 0.174 0.011 0.020 0.017 0.143 0.008 0.276-0.014 0.217-0.037 0.827-0.087 2.413-0.014 0.36-0.031 0.579-0.051 0.593-0.020 0.017-0.576-0.003-1.451-0.053-0.782-0.042-1.426-0.079-1.431-0.082s-0.003-0.751 0.008-1.668c0.014-1.139 0.031-1.679 0.051-1.704 0.020-0.023 0.070-0.031 0.146-0.020 0.065 0.008 0.484 0.039 0.931 0.070zM26.759 9.209c0.526 0.039 1.144 0.084 1.375 0.098 0.596 0.045 0.548 0.025 0.548 0.233 0 0.2-0.132 2.612-0.157 2.882-0.008 0.11-0.031 0.183-0.053 0.191-0.020 0.008-0.382-0.003-0.807-0.028-0.422-0.023-1.043-0.059-1.381-0.076-0.363-0.020-0.621-0.048-0.636-0.065-0.025-0.031 0.067-3.107 0.098-3.245 0.006-0.034 0.023-0.062 0.037-0.062s0.453 0.031 0.976 0.070zM29.801 9.434c0.29 0.023 0.894 0.068 1.341 0.101 0.45 0.031 0.824 0.068 0.835 0.079 0.031 0.028-0.247 3.124-0.284 3.161-0.034 0.034-2.787-0.11-2.826-0.149-0.014-0.014-0.011-0.253 0.008-0.568 0.017-0.298 0.056-1.004 0.090-1.569 0.031-0.565 0.062-1.043 0.067-1.063 0.017-0.045 0.124-0.042 0.768 0.008zM33.406 9.701c0.441 0.031 0.984 0.070 1.209 0.087 0.585 0.039 0.59 0.039 0.59 0.132 0 0.042-0.076 0.737-0.169 1.547-0.093 0.807-0.169 1.476-0.169 1.488 0 0.023-0.641-0.008-2.292-0.104-0.261-0.017-0.489-0.042-0.503-0.056s-0.003-0.278 0.034-0.681c0.034-0.36 0.093-1.052 0.138-1.538 0.053-0.621 0.087-0.894 0.115-0.919 0.025-0.025 0.073-0.034 0.141-0.025 0.056 0.008 0.464 0.039 0.905 0.070zM9.822 10.933c0.228 0.363 0.385 0.641 0.377 0.664-0.014 0.034-0.070 0.039-0.321 0.028-0.391-0.020-0.427-0.028-0.444-0.104-0.020-0.096-0.090-1.184-0.076-1.209 0.028-0.056 0.096 0.034 0.464 0.621zM7.888 11.841c0.759 0.039 1.192 0.070 1.215 0.093 0.020 0.020 0.053 0.357 0.090 0.917 0.062 0.891 0.079 1.167 0.157 2.278 0.025 0.357 0.031 0.613 0.017 0.627-0.031 0.031-2.306-0.023-2.34-0.056-0.011-0.011-0.067-0.278-0.121-0.588-0.056-0.312-0.208-1.178-0.34-1.923-0.132-0.748-0.233-1.378-0.225-1.4 0.011-0.034 0.051-0.039 0.191-0.025 0.096 0.008 0.706 0.045 1.355 0.079zM10.16 11.968c0.298 0.017 0.304 0.017 0.368 0.104 0.037 0.051 0.489 0.759 1.004 1.58 0.723 1.153 0.939 1.518 0.956 1.617 0.031 0.186 0.031 0.557-0.003 0.576-0.031 0.020-2.584-0.037-2.691-0.059-0.082-0.014-0.079-0.006-0.149-1.094-0.034-0.495-0.070-1.057-0.084-1.251-0.065-0.894-0.093-1.431-0.076-1.473s0.048-0.048 0.194-0.034c0.098 0.008 0.312 0.023 0.481 0.034zM12.238 12.080c0.070 0.014 0.073 0.025 0.090 0.231 0.048 0.619 0.073 1.254 0.048 1.279-0.028 0.028-0.135-0.127-0.689-1.012-0.166-0.267-0.292-0.501-0.284-0.517 0.020-0.028 0.65-0.014 0.835 0.020zM13.216 12.134c0.177 0.008 0.799 0.039 1.378 0.070 1.189 0.068 1.125 0.051 1.125 0.292 0 0.079 0.031 0.787 0.070 1.578 0.039 0.787 0.070 1.533 0.070 1.653v0.219l-0.807-0.017c-1.071-0.023-1.26-0.034-1.31-0.093-0.023-0.025-0.25-0.382-0.506-0.793l-0.464-0.745-0.062-1.080c-0.068-1.181-0.070-1.139 0.098-1.114 0.048 0.006 0.231 0.020 0.408 0.028zM17.451 12.359c0.79 0.045 1.302 0.084 1.324 0.101 0.028 0.025 0.037 0.363 0.037 1.786 0 1.642-0.003 1.752-0.048 1.766-0.093 0.025-2.508-0.053-2.536-0.082-0.025-0.028-0.205-3.58-0.183-3.619 0.020-0.031-0.062-0.034 1.406 0.048zM20.288 12.513c0.247 0.014 0.731 0.042 1.077 0.059 0.411 0.023 0.636 0.045 0.652 0.068 0.045 0.053-0.014 3.417-0.059 3.445-0.020 0.014-0.2 0.017-0.402 0.011-0.202-0.008-0.824-0.025-1.378-0.039-0.557-0.017-1.015-0.034-1.021-0.039-0.023-0.020-0.045-3.408-0.025-3.487l0.020-0.079 0.343 0.017c0.188 0.011 0.546 0.031 0.793 0.045zM23.966 12.716c0.717 0.037 1.251 0.076 1.274 0.093 0.037 0.025 0.034 0.242-0.017 1.673-0.034 0.905-0.070 1.656-0.084 1.67-0.028 0.028-0.321 0.028-1.755-0.011-0.554-0.017-1.021-0.037-1.035-0.045-0.034-0.023 0.003-3.355 0.039-3.425 0.025-0.045 0.051-0.051 0.186-0.037 0.090 0.008 0.714 0.045 1.392 0.082zM26.46 12.851c0.287 0.014 0.793 0.039 1.125 0.056s0.672 0.037 0.754 0.045l0.146 0.014v0.132c0 0.073-0.014 0.34-0.028 0.596s-0.053 0.925-0.084 1.49c-0.034 0.565-0.070 1.038-0.084 1.052-0.037 0.037-2.73-0.031-2.767-0.067-0.028-0.028-0.028-0.096 0.014-1.279 0.070-1.994 0.070-2.044 0.107-2.064 0.020-0.014 0.093-0.017 0.166-0.014 0.073 0.006 0.366 0.023 0.652 0.039zM30.394 13.062c0.919 0.051 1.257 0.079 1.271 0.104 0.014 0.020 0.017 0.082 0.011 0.135-0.008 0.053-0.039 0.388-0.070 0.745-0.146 1.698-0.2 2.25-0.225 2.275-0.031 0.031-2.677-0.037-2.711-0.070-0.034-0.031 0.129-3.175 0.169-3.234 0.023-0.037 0.166-0.031 1.555 0.045zM33.532 13.23c1.167 0.062 1.254 0.070 1.271 0.115 0.020 0.053-0.323 3.026-0.352 3.054s-2.632-0.034-2.683-0.065c-0.034-0.023-0.039 0.039 0.132-1.909 0.053-0.627 0.107-1.17 0.115-1.206l0.014-0.068 0.357 0.020c0.197 0.008 0.711 0.037 1.144 0.059zM8.419 16.084c0.526 0.014 0.964 0.037 0.979 0.051 0.011 0.011 0.082 0.891 0.155 1.954 0.115 1.687 0.127 1.937 0.093 1.96-0.068 0.042-1.814 0.037-1.847-0.008-0.017-0.017-0.062-0.231-0.104-0.47-0.039-0.239-0.194-1.114-0.34-1.94s-0.261-1.521-0.253-1.541c0.014-0.042 0.065-0.042 1.319-0.006zM11.582 16.169c0.548 0.014 0.919 0.034 0.939 0.053 0.039 0.039 0.245 3.746 0.208 3.791-0.020 0.028-0.326 0.037-1.358 0.037-0.731 0-1.336-0.011-1.344-0.023-0.023-0.039-0.278-3.821-0.261-3.866 0.014-0.037 0.087-0.039 0.461-0.031 0.245 0.008 0.855 0.025 1.355 0.039zM13.121 16.219c0.028 0.017 2.092 3.287 2.303 3.644 0.039 0.067 0.062 0.132 0.048 0.141-0.042 0.025-2.342 0.025-2.368 0-0.025-0.031-0.233-3.743-0.211-3.782 0.020-0.031 0.183-0.034 0.228-0.003zM15.57 16.27l0.312 0.017 0.017 0.129c0.034 0.287 0.141 2.958 0.118 2.978-0.031 0.031 0.003 0.079-1.046-1.592-0.52-0.824-0.936-1.516-0.928-1.538 0.011-0.031 0.124-0.037 0.613-0.023 0.329 0.006 0.74 0.020 0.914 0.028zM17.828 16.326c0.486 0.008 0.908 0.023 0.936 0.028 0.045 0.014 0.048 0.118 0.042 1.819l-0.008 1.805-1.164 0.023c-0.936 0.017-1.173 0.014-1.201-0.014s-0.059-0.509-0.124-1.845c-0.048-0.993-0.079-1.822-0.067-1.836 0.011-0.023 0.129-0.025 0.36-0.014 0.186 0.008 0.74 0.023 1.226 0.034zM21.18 16.411c0.413 0.011 0.765 0.028 0.782 0.039 0.025 0.014 0.028 0.467 0.011 1.738-0.011 0.945-0.028 1.729-0.039 1.746-0.011 0.020-0.47 0.034-1.395 0.037l-1.375 0.008-0.008-1.772c-0.003-0.976 0-1.788 0.008-1.811 0.014-0.034 0.118-0.037 0.641-0.023 0.343 0.011 0.962 0.028 1.375 0.037zM23.93 16.481c0.641 0.017 1.178 0.042 1.192 0.056 0.025 0.023 0.006 0.745-0.070 2.64-0.023 0.613-0.034 0.723-0.076 0.754-0.034 0.025-0.337 0.034-1.369 0.028l-1.322-0.008 0.008-1.125c0.003-0.619 0.014-1.406 0.023-1.752l0.017-0.624h0.217c0.118 0 0.74 0.014 1.381 0.031zM27.203 16.565c0.574 0.017 1.054 0.039 1.066 0.051 0.011 0.014-0.008 0.59-0.048 1.285-0.042 0.695-0.082 1.42-0.090 1.614-0.011 0.194-0.031 0.368-0.048 0.385-0.020 0.028-0.329 0.037-1.372 0.037h-1.347v-0.191c0-0.382 0.112-3.158 0.127-3.186 0.023-0.034 0.433-0.031 1.712 0.006zM29.793 16.633c1.147 0.020 1.555 0.039 1.569 0.082 0.006 0.017-0.011 0.278-0.039 0.579s-0.090 0.998-0.138 1.547c-0.053 0.61-0.101 1.012-0.121 1.032-0.039 0.039-2.57 0.059-2.607 0.017-0.014-0.011 0.014-0.661 0.056-1.443 0.101-1.788 0.101-1.802 0.146-1.833 0.020-0.011 0.087-0.017 0.149-0.008 0.062 0.006 0.506 0.020 0.984 0.028zM33.555 16.728c0.458 0.011 0.844 0.031 0.855 0.039 0.020 0.023 0.006 0.146-0.261 2.466-0.037 0.332-0.079 0.61-0.090 0.621s-0.599 0.031-1.305 0.042c-1.24 0.017-1.288 0.017-1.308-0.034-0.011-0.028 0.008-0.368 0.042-0.756 0.034-0.385 0.096-1.077 0.135-1.532 0.042-0.456 0.087-0.844 0.101-0.863 0.020-0.025 0.155-0.031 0.509-0.020 0.267 0.008 0.86 0.025 1.322 0.037z"></path>
</symbol>
<symbol id="icon-facebook-svgrepo-com" viewBox="0 0 32 32">
<path d="M16 0c-8.838 0-16 7.162-16 16s7.162 16 16 16 16-7.163 16-16-7.163-16-16-16zM25.988 25.981c-1.3 1.3-2.806 2.319-4.488 3.025-1.738 0.738-3.587 1.106-5.5 1.106-1.906 0-3.756-0.375-5.5-1.106-1.681-0.712-3.194-1.731-4.487-3.025-1.3-1.3-2.319-2.806-3.025-4.488-0.738-1.738-1.113-3.587-1.113-5.494s0.375-3.756 1.106-5.5c0.712-1.681 1.731-3.194 3.025-4.487 1.306-1.3 2.813-2.319 4.494-3.031 1.744-0.731 3.594-1.106 5.5-1.106s3.756 0.375 5.5 1.106c1.681 0.712 3.194 1.731 4.488 3.025 1.3 1.3 2.319 2.806 3.025 4.488 0.738 1.738 1.106 3.588 1.106 5.5 0 1.906-0.375 3.756-1.106 5.5-0.712 1.681-1.731 3.194-3.025 4.488z"></path>
<path d="M18.113 10.544c0.644 0 1.331 0.2 1.331 0.2l0.413-2.45c0 0-0.875-0.3-2.962-0.3-1.281 0-2.025 0.487-2.569 1.206-0.512 0.681-0.531 1.775-0.531 2.481v1.606h-1.656v2.394h1.656v8.313h3.1v-8.313h2.456l0.181-2.394h-2.637v-1.869c0-0.644 0.575-0.875 1.219-0.875z"></path>
</symbol>
<symbol id="icon-html" viewBox="0 0 94 32">
<path d="M38.655 23.289c0.164 0 0.329-0.049 0.477-0.082v1.15c-0.296 0.115-0.657 0.181-1.019 0.181-0.657 0-1.183-0.263-1.446-0.838-0.707 0.575-1.594 0.937-2.728 0.937-1.315 0-2.531-0.723-2.531-2.219 0-1.857 1.709-2.416 3.221-2.416 0.625 0 1.315 0.082 1.874 0.214v-0.263c0-0.904-0.657-1.528-1.89-1.528-1.068 0-1.956 0.263-2.597 0.559v-1.479c0.575-0.197 1.611-0.477 2.761-0.477 2.038 0 3.336 0.97 3.336 3.156v2.58c0.016 0.394 0.246 0.526 0.542 0.526zM33.067 22.302c0 0.707 0.625 1.068 1.348 1.068 0.772 0 1.512-0.279 2.087-0.855v-1.216c-0.444-0.082-1.052-0.181-1.561-0.181-0.904 0-1.874 0.279-1.874 1.183z"></path>
<path d="M43.783 17.010c0.805 0 1.594 0.181 2.219 0.559v1.479c-0.526-0.378-1.265-0.608-2.005-0.608-1.282 0-2.564 0.674-2.564 2.383 0 1.644 1.249 2.383 2.547 2.383 0.772 0 1.528-0.23 2.104-0.559v1.496c-0.69 0.329-1.479 0.493-2.383 0.493-1.923 0-3.895-1.167-3.895-3.747-0.016-2.712 2.054-3.879 3.977-3.879z"></path>
<path d="M54.318 23.289c0.164 0 0.328-0.049 0.477-0.082v1.15c-0.296 0.115-0.657 0.181-1.019 0.181-0.657 0-1.183-0.263-1.446-0.838-0.707 0.575-1.594 0.937-2.728 0.937-1.315 0-2.531-0.723-2.531-2.219 0-1.857 1.709-2.416 3.221-2.416 0.624 0 1.315 0.082 1.874 0.214v-0.263c0-0.904-0.657-1.528-1.89-1.528-1.068 0-1.956 0.263-2.597 0.559v-1.479c0.576-0.197 1.611-0.477 2.761-0.477 2.038 0 3.336 0.97 3.336 3.156v2.58c0.016 0.394 0.263 0.526 0.543 0.526zM48.746 22.302c0 0.707 0.624 1.068 1.348 1.068 0.773 0 1.512-0.279 2.088-0.855v-1.216c-0.444-0.082-1.052-0.181-1.561-0.181-0.92 0-1.874 0.279-1.874 1.183z"></path>
<path d="M63.259 13.888v10.535h-1.446v-1.151c-0.559 0.707-1.414 1.331-2.761 1.331-2.186 0-3.583-1.726-3.583-3.813 0-2.071 1.397-3.813 3.583-3.813 1.265 0 2.104 0.559 2.597 1.134v-4.224h1.611zM59.331 18.424c-1.298 0-2.235 0.97-2.235 2.4 0 1.413 0.953 2.383 2.235 2.383 1.134 0 1.956-0.723 2.301-1.512v-1.759c-0.345-0.789-1.167-1.512-2.301-1.512z"></path>
<path d="M68.469 17.010c2.876 0 3.862 2.317 3.402 4.405h-5.424c0.181 1.298 1.446 1.841 2.761 1.841 0.871 0 1.677-0.214 2.285-0.509v1.381c-0.657 0.312-1.578 0.493-2.58 0.493-2.219 0-4.093-1.265-4.093-3.813 0-2.613 1.989-3.796 3.649-3.796zM68.551 18.341c-1.085 0-2.054 0.641-2.12 1.857h3.994c0.098-0.625-0.296-1.857-1.874-1.857z"></path>
<path d="M73.514 24.422v-7.215h1.43v0.904c0.394-0.444 1.232-1.101 2.4-1.101 1.085 0 1.841 0.444 2.252 1.15 0.624-0.625 1.479-1.15 2.531-1.15 1.906 0 2.745 1.413 2.745 2.909v4.52h-1.611v-4.47c0-0.937-0.559-1.512-1.43-1.512-0.789 0-1.413 0.526-1.791 0.97 0.016 0.164 0.033 0.329 0.033 0.493v4.52h-1.611v-4.47c0-0.937-0.559-1.512-1.43-1.512s-1.528 0.625-1.907 1.118v4.865h-1.61v-0.016z"></path>
<path d="M91.971 17.207h1.676l-3.385 8.201c-0.789 1.874-1.808 2.515-2.909 2.515-0.312 0-0.624-0.049-0.953-0.115v-1.364c0.247 0.082 0.493 0.099 0.74 0.099 0.789 0 1.364-0.559 1.792-1.676l0.148-0.362-3.435-7.281h1.709l2.432 5.44 2.186-5.456z"></path>
<path d="M33.544 1.249v4.109c0.526-0.542 1.348-0.986 2.334-0.986 1.824 0 2.975 1.233 2.975 2.942v4.47h-1.611v-4.257c0-1.167-0.723-1.726-1.676-1.726-0.92 0-1.611 0.625-2.022 1.2v4.783h-1.611v-10.535h1.611z"></path>
<path d="M43.257 1.989v2.564h2.613v1.413h-2.613v3.303c0 0.953 0.444 1.265 1.364 1.265 0.526 0 1.003-0.099 1.463-0.279v1.381c-0.542 0.197-1.233 0.312-1.939 0.312-1.397 0-2.482-0.69-2.482-2.383v-3.616h-1.298v-1.413h1.298v-2.153l1.594-0.394z"></path>
<path d="M47.941 11.784v-7.215h1.43v0.904c0.395-0.444 1.233-1.101 2.4-1.101 1.085 0 1.841 0.444 2.252 1.15 0.624-0.625 1.479-1.15 2.531-1.15 1.907 0 2.745 1.413 2.745 2.909v4.52h-1.611v-4.487c0-0.937-0.559-1.512-1.43-1.512-0.789 0-1.414 0.526-1.792 0.97 0.016 0.164 0.033 0.329 0.033 0.493v4.52h-1.611v-4.47c0-0.937-0.559-1.512-1.43-1.512s-1.528 0.625-1.906 1.118v4.865h-1.611z"></path>
<path d="M63.258 1.249h-1.61v10.535h1.61v-10.535z"></path>
<path d="M12.737 0.016l-0.131-0.016-12.606 1.315v23.108l12.606 7.494 12.606-7.494v-23.108l-12.474-1.298zM23.568 23.486l-10.962 6.525-10.962-6.525v-9.467l10.913 6.492 0.016 1.183-7.478-4.454-0.016 1.151 7.511 4.52 0.016 1.2-7.511-4.487-0.016 1.15 7.511 4.52 7.593-4.536v-1.15h-0.016v-3.731l3.386-2.021v9.631h0.016zM23.551 12.622l-2.991 1.759-1.381 0.822-6.607-3.912-0.016 1.15 5.637 3.336-0.049 0.033-0.115 0.066-0.805 0.477-4.651-2.761-0.016 1.15 3.681 2.186-0.871 0.575-0.016 0.016-2.777-1.644-0.016 1.15 1.824 1.068-1.857 1.118-10.847-6.459 10.864-6.541 11.012 6.41zM23.568 11.488l-11.012-6.492-10.913 6.475v-8.661l10.962-1.15 10.962 1.15v8.678z"></path>
</symbol>
<symbol id="icon-instagram-svgrepo-com" viewBox="0 0 32 32">
<path d="M16 0c-8.838 0-16 7.162-16 16s7.162 16 16 16 16-7.163 16-16-7.163-16-16-16zM25.988 25.981c-1.3 1.3-2.806 2.319-4.488 3.025-1.738 0.738-3.587 1.106-5.5 1.106-1.906 0-3.756-0.375-5.5-1.106-1.681-0.712-3.194-1.731-4.487-3.025-1.3-1.3-2.319-2.806-3.025-4.488-0.738-1.738-1.113-3.587-1.113-5.494s0.375-3.756 1.106-5.5c0.712-1.681 1.731-3.194 3.025-4.487 1.306-1.3 2.813-2.319 4.494-3.031 1.744-0.731 3.594-1.106 5.5-1.106s3.756 0.375 5.5 1.106c1.681 0.712 3.194 1.731 4.488 3.025 1.3 1.3 2.319 2.806 3.025 4.488 0.738 1.738 1.106 3.588 1.106 5.5 0 1.906-0.375 3.756-1.106 5.5-0.712 1.681-1.731 3.194-3.025 4.488z"></path>
<path d="M20.913 8h-9.813c-1.706 0-3.094 1.387-3.094 3.094v9.819c0 1.706 1.387 3.094 3.094 3.094h9.813c1.706 0 3.094-1.387 3.094-3.094v-9.825c-0.006-1.7-1.394-3.088-3.094-3.088zM21.8 9.844h0.356v2.713l-2.706 0.006-0.006-2.713 2.356-0.006zM13.719 14.356c0.512-0.706 1.344-1.175 2.281-1.175s1.769 0.463 2.281 1.175c0.337 0.463 0.531 1.031 0.531 1.644 0 1.55-1.262 2.819-2.819 2.819s-2.806-1.269-2.806-2.819c0-0.613 0.2-1.181 0.531-1.644zM22.444 20.906c0 0.844-0.688 1.531-1.531 1.531h-9.813c-0.844 0-1.531-0.688-1.531-1.531v-6.55h2.387c-0.206 0.506-0.325 1.063-0.325 1.644 0 2.413 1.963 4.375 4.375 4.375s4.375-1.962 4.375-4.375c0-0.581-0.119-1.137-0.325-1.644h2.387v6.55z"></path>
</symbol>
<symbol id="icon-linkedin-svgrepo-com" viewBox="0 0 32 32">
<path d="M16 0c-8.838 0-16 7.162-16 16s7.162 16 16 16 16-7.163 16-16-7.163-16-16-16zM25.988 25.981c-1.3 1.3-2.806 2.319-4.488 3.025-1.738 0.738-3.587 1.106-5.5 1.106-1.906 0-3.756-0.375-5.5-1.106-1.681-0.712-3.194-1.731-4.487-3.025-1.3-1.3-2.319-2.806-3.025-4.488-0.738-1.738-1.113-3.587-1.113-5.494s0.375-3.756 1.106-5.5c0.712-1.681 1.731-3.194 3.025-4.487 1.306-1.3 2.813-2.319 4.494-3.031 1.744-0.731 3.594-1.106 5.5-1.106s3.756 0.375 5.5 1.106c1.681 0.712 3.194 1.731 4.488 3.025 1.3 1.3 2.319 2.806 3.025 4.488 0.738 1.738 1.106 3.588 1.106 5.5 0 1.906-0.375 3.756-1.106 5.5-0.712 1.681-1.731 3.194-3.025 4.488z"></path>
<path d="M8.406 12.713h3.119v9.981h-3.119v-9.981z"></path>
<path d="M9.9 8c-1.15 0-1.906 0.744-1.906 1.731 0 0.969 0.731 1.731 1.863 1.731h0.025c1.175 0 1.906-0.769 1.9-1.731-0.025-0.988-0.731-1.731-1.881-1.731z"></path>
<path d="M20.044 12.619c-1.788 0-2.906 0.975-3.113 1.662v-1.569h-3.506c0.044 0.831 0 9.981 0 9.981h3.506v-5.394c0-0.306-0.012-0.606 0.075-0.819 0.238-0.6 0.756-1.225 1.688-1.225 1.219 0 1.769 0.925 1.769 2.275v5.163h3.538v-5.55c0-3.088-1.738-4.525-3.956-4.525z"></path>
</symbol>
<symbol id="icon-nerds-logo" viewBox="0 0 78 32">
<path d="M23.288 12.016c1.77 1.927 5.632 0.182 4.379-2.386-0.837-1.724-2.091-1.324-2.986-0.882-1.792 0.863-2.131 2.447-1.393 3.269zM20.415 10.668c1.152 2.359-2.394 3.962-4.020 2.192-0.678-0.754-0.366-2.211 1.278-3.003 0.823-0.405 1.975-0.774 2.742 0.811zM76.575 24.424c-0.592 0.077-1.209 0.13-1.801 0.181l-0.020 0.002v0.027c-1.171 8.419-12.697 9.809-12.984 3.2-0.13-2.99 5.621-3.855 11.344-4.406 0.101-2.621-1.728-2.034-3.951-1.32-2.337 0.75-5.107 1.64-6.525-0.911-2.433-4.376 7.094-8.697 8.111-7.807 3.080 2.697 1.688 3.196-0.577 4.008l-0.091 0.033c-4.601 1.653-2.808 1.991-2.187 1.807 3.67-1.092 6.965-0.504 6.939 4.032 0.298-0.025 0.59-0.044 0.879-0.063v0c0.317-0.021 0.629-0.041 0.942-0.069 1.118-0.104 1.196 1.181-0.078 1.286zM72.932 24.79c-4.424 0.498-8.249 1.181-7.832 2.596 0.832 2.702 6.583 3.306 7.832-2.596zM57.11 16.596c-0.395 2.739-0.385 5.649-0.054 5.667 0.162 0.009 1.117-0.168 1.425-0.731 0.295-0.542 0.571-1.288 0.859-2.070v-0c0.581-1.576 1.215-3.297 2.179-3.79 1.378-0.704-3.921-2.446-4.409 0.924zM14.004 30.384c-3.84 2.588-6.894 2.016-5.921-5.26 0.703-5.287-0.46-5.586-1.514-4.578-1.379 1.308-2.244 4.714-2.271 7.957 0.125 0.779 0.288 1.552 0.487 2.316 0.162 0.79-2.379 1.607-3.866 0.49-0.513-0.381-0.919-4.223-0.919-9.427 0-4.278 0.568-7.222 1.081-7.358 3.893-1.062 4.515 0.654 3.677 3.87-0.333 1.259-0.56 2.545-0.676 3.842 0.811-2.261 1.974-4.114 3.298-4.932 3.596-2.261 6.596-1.199 6.029 3.297-0.973 8.039-1.054 9.128-0.189 8.502 1.082-0.763 1.784 0.6 0.784 1.281zM20.25 31.584c2.623 0.3 5.353-0.518 6.408-2.207 0.892-1.417 0.162-1.908-0.865-0.764-2.162 2.48-4.406 1.363-5.352-1.144l0.243-0.081c4.568-1.826 7.434-6.785 5.623-9.592-2.488-3.87-10.273-0.409-11.247 5.014-0.892 5.014 1.433 8.366 5.19 8.774zM20.062 25.78c2.839-2.017 3.785-6.458 3.001-7.712-0.838-1.308-2.46 0.736-3.028 5.695-0.054 0.708-0.054 1.389 0.027 2.017zM37.394 24.752c1-0.327 2.118-1.237 2.893-2.453 0.217-0.341 0.399-0.647 0.649-1.445-0.030 0.097-0.019 0.053 0.010-0.057 0.052-0.198 0.161-0.612 0.179-0.788 0-0.027 0.027-0.164 0.054-0.218 0.594-3.325-1.46-5.205-4.299-3.788-1.595 0.79-3.568 3.788-4.757 7.031 0.297-1.744 0.811-3.407 1.378-5.042 0.973-2.888-0.838-4.36-3.947-3.515-0.514 0.136-1.46 3.924-1.46 8.202 0 5.204 0.271 8.202 0.784 8.584 1.487 1.144 4.136 0.3 3.866-0.463-0.105-0.29-0.184-0.581-0.263-0.871l-0.008-0.028c0-0.082 0-0.164-0.027-0.245-0.514-3.38 1.46-8.065 3.082-9.319 0.432-0.354 1.027-0.109 1.108 0.817-1.325 0.654-1.757 1.799-1.757 2.289 0 1.335 1.351 1.662 2.514 1.308z"></path>
<path d="M54.888 13.169c-0.233 1.209-0.414 2.427-0.541 3.651-0.513 4.878-0.297 9.21 0.297 11.145 0.352 1.036 1.676 2.398 2.947 0.981 1.378-1.553 2.893-0.654 1.054 1.171-1.135 1.118-3.243 1.88-5.352 1.662-1.514-0.191-2.433-1.171-2.974-2.669-0.215 0.435-0.459 0.817-0.756 1.116-1.027 1.063-2.272 1.663-3.866 1.499-3.218-0.354-5.109-3.841-4.218-8.801 0.946-5.232 5.488-7.139 8.111-5.749 0.054-0.654 0.108-1.309 0.162-1.99 0.014-0.068 0.020-0.136 0.027-0.204s0.014-0.136 0.027-0.204c-0.798 0.175-1.6 0.33-2.406 0.463-11.624 1.935-7.623-7.549-4.785-10.028 3.217-2.78 3.569-0.899 2.568-0.272-1.784 1.144-2.568 7.712 2.541 7.712 0.838 0 1.622-0.054 2.406-0.136 1.596-8.883 6.434-13.189 10.354-11.772 4.352 1.581 3.893 8.502-5.597 12.426zM49.59 24.996c-0.109-1.717-0.109-3.652-0.081-5.642 0-0.126 0.007-0.252 0.014-0.375 0.007-0.115 0.013-0.228 0.013-0.334-1.622-0.736-3.217 1.771-3.623 5.232-0.459 4.060 1.352 6.212 2.38 5.232 0.784-0.791 1.189-3.298 1.297-4.114zM61.268 4.067c-0.865-1.281-4.028 0.272-5.866 6.949 4.623-2.208 6.461-6.023 5.866-6.949z"></path>
</symbol>
</defs>
</svg>

<svg aria-hidden="true" style="position: absolute; width: 0; height: 0; overflow: hidden;" version="1.1" xmlns="http://www.w3.org/2000/svg" xmlns:xlink="http://www.w3.org/1999/xlink">
<defs>
<symbol id="icon-Shape" viewBox="0 0 37 32">
<path d="M5.261 11.53l-4.804 5.029 13.217 13.836 23.66-24.768-4.803-5.029-18.857 19.737-8.413-8.805z"></path>
</symbol>
</defs>
</svg>



